<mxfile host="Electron" agent="Mozilla/5.0 (X11; Linux x86_64) AppleWebKit/537.36 (KHTML, like Gecko) draw.io/24.7.5 Chrome/126.0.6478.183 Electron/31.3.0 Safari/537.36" version="24.7.5">
  <diagram name="Page-1" id="nAOH3eZicdSQfYtLonMW">
    <mxGraphModel dx="676" dy="428" grid="1" gridSize="10" guides="1" tooltips="1" connect="1" arrows="1" fold="1" page="1" pageScale="1" pageWidth="600" pageHeight="200" math="0" shadow="0">
      <root>
        <mxCell id="0" />
        <mxCell id="1" parent="0" />
        <mxCell id="9BBqrbZMhpgvefR6SsMU-2" value="+8" style="ellipse;whiteSpace=wrap;html=1;aspect=fixed;fontFamily=Courier New;fontSize=11;fillColor=#dae8fc;strokeColor=#6c8ebf;" parent="1" vertex="1">
          <mxGeometry x="270" y="10" width="20" height="20" as="geometry" />
        </mxCell>
        <mxCell id="9BBqrbZMhpgvefR6SsMU-8" value="+8" style="ellipse;whiteSpace=wrap;html=1;aspect=fixed;fontFamily=Courier New;fontSize=11;fillColor=#f8cecc;strokeColor=#b85450;" parent="1" vertex="1">
          <mxGeometry x="70" y="50" width="20" height="20" as="geometry" />
        </mxCell>
        <mxCell id="9BBqrbZMhpgvefR6SsMU-9" value="+2" style="ellipse;whiteSpace=wrap;html=1;aspect=fixed;fontFamily=Courier New;fontSize=11;fillColor=#f8cecc;strokeColor=#b85450;" parent="1" vertex="1">
          <mxGeometry x="270" y="50" width="20" height="20" as="geometry" />
        </mxCell>
        <mxCell id="9BBqrbZMhpgvefR6SsMU-10" value="+6" style="ellipse;whiteSpace=wrap;html=1;aspect=fixed;fontFamily=Courier New;fontSize=11;fillColor=#f8cecc;strokeColor=#b85450;" parent="1" vertex="1">
          <mxGeometry x="500" y="50" width="20" height="20" as="geometry" />
        </mxCell>
        <mxCell id="9BBqrbZMhpgvefR6SsMU-13" value="" style="endArrow=none;html=1;rounded=0;fontFamily=Courier New;fontSize=11;" parent="1" source="9BBqrbZMhpgvefR6SsMU-8" target="9BBqrbZMhpgvefR6SsMU-2" edge="1">
          <mxGeometry width="50" height="50" relative="1" as="geometry">
            <mxPoint x="440" y="180" as="sourcePoint" />
            <mxPoint x="490" y="130" as="targetPoint" />
          </mxGeometry>
        </mxCell>
        <mxCell id="9BBqrbZMhpgvefR6SsMU-14" value="" style="endArrow=none;html=1;rounded=0;fontFamily=Courier New;fontSize=11;" parent="1" source="9BBqrbZMhpgvefR6SsMU-9" target="9BBqrbZMhpgvefR6SsMU-2" edge="1">
          <mxGeometry width="50" height="50" relative="1" as="geometry">
            <mxPoint x="179" y="76" as="sourcePoint" />
            <mxPoint x="301" y="24" as="targetPoint" />
          </mxGeometry>
        </mxCell>
        <mxCell id="9BBqrbZMhpgvefR6SsMU-15" value="" style="endArrow=none;html=1;rounded=0;fontFamily=Courier New;fontSize=11;" parent="1" source="9BBqrbZMhpgvefR6SsMU-10" target="9BBqrbZMhpgvefR6SsMU-2" edge="1">
          <mxGeometry width="50" height="50" relative="1" as="geometry">
            <mxPoint x="189" y="86" as="sourcePoint" />
            <mxPoint x="311" y="34" as="targetPoint" />
          </mxGeometry>
        </mxCell>
        <mxCell id="9BBqrbZMhpgvefR6SsMU-16" value="+8" style="ellipse;whiteSpace=wrap;html=1;aspect=fixed;fontFamily=Courier New;fontSize=11;fillColor=#dae8fc;strokeColor=#6c8ebf;" parent="1" vertex="1">
          <mxGeometry x="30" y="90" width="20" height="20" as="geometry" />
        </mxCell>
        <mxCell id="9BBqrbZMhpgvefR6SsMU-17" value="+2" style="ellipse;whiteSpace=wrap;html=1;aspect=fixed;fontFamily=Courier New;fontSize=11;fillColor=#dae8fc;strokeColor=#6c8ebf;" parent="1" vertex="1">
          <mxGeometry x="190" y="90" width="20" height="20" as="geometry" />
        </mxCell>
        <mxCell id="9BBqrbZMhpgvefR6SsMU-18" value="+8" style="ellipse;whiteSpace=wrap;html=1;aspect=fixed;fontFamily=Courier New;fontSize=11;fillColor=#dae8fc;strokeColor=#6c8ebf;" parent="1" vertex="1">
          <mxGeometry x="350" y="90" width="20" height="20" as="geometry" />
        </mxCell>
        <mxCell id="9BBqrbZMhpgvefR6SsMU-19" value="+9" style="ellipse;whiteSpace=wrap;html=1;aspect=fixed;fontFamily=Courier New;fontSize=11;fillColor=#dae8fc;strokeColor=#6c8ebf;" parent="1" vertex="1">
          <mxGeometry x="110" y="90" width="20" height="20" as="geometry" />
        </mxCell>
        <mxCell id="9BBqrbZMhpgvefR6SsMU-20" value="+9" style="ellipse;whiteSpace=wrap;html=1;aspect=fixed;fontFamily=Courier New;fontSize=11;fillColor=#dae8fc;strokeColor=#6c8ebf;" parent="1" vertex="1">
          <mxGeometry x="270" y="90" width="20" height="20" as="geometry" />
        </mxCell>
        <mxCell id="9BBqrbZMhpgvefR6SsMU-21" value="+6" style="ellipse;whiteSpace=wrap;html=1;aspect=fixed;fontFamily=Courier New;fontSize=11;fillColor=#dae8fc;strokeColor=#6c8ebf;" parent="1" vertex="1">
          <mxGeometry x="450" y="90" width="20" height="20" as="geometry" />
        </mxCell>
        <mxCell id="9BBqrbZMhpgvefR6SsMU-23" value="+7" style="ellipse;whiteSpace=wrap;html=1;aspect=fixed;fontFamily=Courier New;fontSize=11;fillColor=#dae8fc;strokeColor=#6c8ebf;" parent="1" vertex="1">
          <mxGeometry x="550" y="90" width="20" height="20" as="geometry" />
        </mxCell>
        <mxCell id="9BBqrbZMhpgvefR6SsMU-24" value="" style="endArrow=none;html=1;rounded=0;fontFamily=Courier New;fontSize=11;" parent="1" source="9BBqrbZMhpgvefR6SsMU-16" target="9BBqrbZMhpgvefR6SsMU-8" edge="1">
          <mxGeometry width="50" height="50" relative="1" as="geometry">
            <mxPoint x="170" y="48" as="sourcePoint" />
            <mxPoint x="300" y="22" as="targetPoint" />
          </mxGeometry>
        </mxCell>
        <mxCell id="9BBqrbZMhpgvefR6SsMU-25" value="" style="endArrow=none;html=1;rounded=0;fontFamily=Courier New;fontSize=11;" parent="1" source="9BBqrbZMhpgvefR6SsMU-19" target="9BBqrbZMhpgvefR6SsMU-8" edge="1">
          <mxGeometry width="50" height="50" relative="1" as="geometry">
            <mxPoint x="97" y="113" as="sourcePoint" />
            <mxPoint x="153" y="57" as="targetPoint" />
          </mxGeometry>
        </mxCell>
        <mxCell id="9BBqrbZMhpgvefR6SsMU-26" value="" style="endArrow=none;html=1;rounded=0;fontFamily=Courier New;fontSize=11;" parent="1" source="9BBqrbZMhpgvefR6SsMU-17" target="9BBqrbZMhpgvefR6SsMU-9" edge="1">
          <mxGeometry width="50" height="50" relative="1" as="geometry">
            <mxPoint x="107" y="123" as="sourcePoint" />
            <mxPoint x="163" y="67" as="targetPoint" />
          </mxGeometry>
        </mxCell>
        <mxCell id="9BBqrbZMhpgvefR6SsMU-27" value="" style="endArrow=none;html=1;rounded=0;fontFamily=Courier New;fontSize=11;" parent="1" source="9BBqrbZMhpgvefR6SsMU-20" target="9BBqrbZMhpgvefR6SsMU-9" edge="1">
          <mxGeometry width="50" height="50" relative="1" as="geometry">
            <mxPoint x="117" y="133" as="sourcePoint" />
            <mxPoint x="173" y="77" as="targetPoint" />
          </mxGeometry>
        </mxCell>
        <mxCell id="9BBqrbZMhpgvefR6SsMU-28" value="" style="endArrow=none;html=1;rounded=0;fontFamily=Courier New;fontSize=11;" parent="1" source="9BBqrbZMhpgvefR6SsMU-18" target="9BBqrbZMhpgvefR6SsMU-9" edge="1">
          <mxGeometry width="50" height="50" relative="1" as="geometry">
            <mxPoint x="327" y="110" as="sourcePoint" />
            <mxPoint x="313" y="60" as="targetPoint" />
          </mxGeometry>
        </mxCell>
        <mxCell id="9BBqrbZMhpgvefR6SsMU-29" value="" style="endArrow=none;html=1;rounded=0;fontFamily=Courier New;fontSize=11;" parent="1" source="9BBqrbZMhpgvefR6SsMU-21" target="9BBqrbZMhpgvefR6SsMU-10" edge="1">
          <mxGeometry width="50" height="50" relative="1" as="geometry">
            <mxPoint x="337" y="120" as="sourcePoint" />
            <mxPoint x="323" y="70" as="targetPoint" />
          </mxGeometry>
        </mxCell>
        <mxCell id="9BBqrbZMhpgvefR6SsMU-30" value="" style="endArrow=none;html=1;rounded=0;fontFamily=Courier New;fontSize=11;" parent="1" source="9BBqrbZMhpgvefR6SsMU-23" target="9BBqrbZMhpgvefR6SsMU-10" edge="1">
          <mxGeometry width="50" height="50" relative="1" as="geometry">
            <mxPoint x="477" y="110" as="sourcePoint" />
            <mxPoint x="463" y="60" as="targetPoint" />
          </mxGeometry>
        </mxCell>
        <mxCell id="9BBqrbZMhpgvefR6SsMU-31" value="+4" style="ellipse;whiteSpace=wrap;html=1;aspect=fixed;fontFamily=Courier New;fontSize=11;fillColor=#f8cecc;strokeColor=#b85450;" parent="1" vertex="1">
          <mxGeometry x="10" y="130" width="20" height="20" as="geometry" />
        </mxCell>
        <mxCell id="9BBqrbZMhpgvefR6SsMU-32" value="+8" style="ellipse;whiteSpace=wrap;html=1;aspect=fixed;fontFamily=Courier New;fontSize=11;fillColor=#f8cecc;strokeColor=#b85450;" parent="1" vertex="1">
          <mxGeometry x="50" y="130" width="20" height="20" as="geometry" />
        </mxCell>
        <mxCell id="9BBqrbZMhpgvefR6SsMU-33" value="" style="endArrow=none;html=1;rounded=0;fontFamily=Courier New;fontSize=11;" parent="1" source="9BBqrbZMhpgvefR6SsMU-31" target="9BBqrbZMhpgvefR6SsMU-16" edge="1">
          <mxGeometry width="50" height="50" relative="1" as="geometry">
            <mxPoint x="-13" y="160" as="sourcePoint" />
            <mxPoint x="93" y="87" as="targetPoint" />
          </mxGeometry>
        </mxCell>
        <mxCell id="9BBqrbZMhpgvefR6SsMU-34" value="" style="endArrow=none;html=1;rounded=0;fontFamily=Courier New;fontSize=11;" parent="1" source="9BBqrbZMhpgvefR6SsMU-32" target="9BBqrbZMhpgvefR6SsMU-16" edge="1">
          <mxGeometry width="50" height="50" relative="1" as="geometry">
            <mxPoint x="127" y="150" as="sourcePoint" />
            <mxPoint x="109" y="85" as="targetPoint" />
          </mxGeometry>
        </mxCell>
        <mxCell id="9BBqrbZMhpgvefR6SsMU-35" value="+9" style="ellipse;whiteSpace=wrap;html=1;aspect=fixed;fontFamily=Courier New;fontSize=11;fillColor=#f8cecc;strokeColor=#b85450;" parent="1" vertex="1">
          <mxGeometry x="90" y="130" width="20" height="20" as="geometry" />
        </mxCell>
        <mxCell id="9BBqrbZMhpgvefR6SsMU-36" value="+3" style="ellipse;whiteSpace=wrap;html=1;aspect=fixed;fontFamily=Courier New;fontSize=11;fillColor=#f8cecc;strokeColor=#b85450;" parent="1" vertex="1">
          <mxGeometry x="130" y="130" width="20" height="20" as="geometry" />
        </mxCell>
        <mxCell id="9BBqrbZMhpgvefR6SsMU-37" value="" style="endArrow=none;html=1;rounded=0;fontFamily=Courier New;fontSize=11;" parent="1" source="9BBqrbZMhpgvefR6SsMU-35" target="9BBqrbZMhpgvefR6SsMU-19" edge="1">
          <mxGeometry width="50" height="50" relative="1" as="geometry">
            <mxPoint x="67" y="160" as="sourcePoint" />
            <mxPoint x="173" y="87" as="targetPoint" />
          </mxGeometry>
        </mxCell>
        <mxCell id="9BBqrbZMhpgvefR6SsMU-38" value="" style="endArrow=none;html=1;rounded=0;fontFamily=Courier New;fontSize=11;" parent="1" source="9BBqrbZMhpgvefR6SsMU-36" target="9BBqrbZMhpgvefR6SsMU-19" edge="1">
          <mxGeometry width="50" height="50" relative="1" as="geometry">
            <mxPoint x="207" y="150" as="sourcePoint" />
            <mxPoint x="189" y="85" as="targetPoint" />
          </mxGeometry>
        </mxCell>
        <mxCell id="9BBqrbZMhpgvefR6SsMU-39" value="+2" style="ellipse;whiteSpace=wrap;html=1;aspect=fixed;fontFamily=Courier New;fontSize=11;fillColor=#f8cecc;strokeColor=#b85450;" parent="1" vertex="1">
          <mxGeometry x="170" y="130" width="20" height="20" as="geometry" />
        </mxCell>
        <mxCell id="9BBqrbZMhpgvefR6SsMU-40" value="-2" style="ellipse;whiteSpace=wrap;html=1;aspect=fixed;fontFamily=Courier New;fontSize=11;fillColor=#f8cecc;strokeColor=#b85450;" parent="1" vertex="1">
          <mxGeometry x="210" y="130" width="20" height="20" as="geometry" />
        </mxCell>
        <mxCell id="9BBqrbZMhpgvefR6SsMU-41" value="" style="endArrow=none;html=1;rounded=0;fontFamily=Courier New;fontSize=11;" parent="1" source="9BBqrbZMhpgvefR6SsMU-39" target="9BBqrbZMhpgvefR6SsMU-17" edge="1">
          <mxGeometry width="50" height="50" relative="1" as="geometry">
            <mxPoint x="127" y="160" as="sourcePoint" />
            <mxPoint x="233" y="87" as="targetPoint" />
          </mxGeometry>
        </mxCell>
        <mxCell id="9BBqrbZMhpgvefR6SsMU-42" value="" style="endArrow=none;html=1;rounded=0;fontFamily=Courier New;fontSize=11;" parent="1" source="9BBqrbZMhpgvefR6SsMU-40" target="9BBqrbZMhpgvefR6SsMU-17" edge="1">
          <mxGeometry width="50" height="50" relative="1" as="geometry">
            <mxPoint x="267" y="150" as="sourcePoint" />
            <mxPoint x="249" y="85" as="targetPoint" />
          </mxGeometry>
        </mxCell>
        <mxCell id="9BBqrbZMhpgvefR6SsMU-43" value="+9" style="ellipse;whiteSpace=wrap;html=1;aspect=fixed;fontFamily=Courier New;fontSize=11;fillColor=#f8cecc;strokeColor=#b85450;" parent="1" vertex="1">
          <mxGeometry x="250" y="130" width="20" height="20" as="geometry" />
        </mxCell>
        <mxCell id="9BBqrbZMhpgvefR6SsMU-44" value="-1" style="ellipse;whiteSpace=wrap;html=1;aspect=fixed;fontFamily=Courier New;fontSize=11;fillColor=#f8cecc;strokeColor=#b85450;" parent="1" vertex="1">
          <mxGeometry x="290" y="130" width="20" height="20" as="geometry" />
        </mxCell>
        <mxCell id="9BBqrbZMhpgvefR6SsMU-45" value="" style="endArrow=none;html=1;rounded=0;fontFamily=Courier New;fontSize=11;" parent="1" source="9BBqrbZMhpgvefR6SsMU-43" target="9BBqrbZMhpgvefR6SsMU-20" edge="1">
          <mxGeometry width="50" height="50" relative="1" as="geometry">
            <mxPoint x="187" y="160" as="sourcePoint" />
            <mxPoint x="293" y="87" as="targetPoint" />
          </mxGeometry>
        </mxCell>
        <mxCell id="9BBqrbZMhpgvefR6SsMU-46" value="" style="endArrow=none;html=1;rounded=0;fontFamily=Courier New;fontSize=11;" parent="1" source="9BBqrbZMhpgvefR6SsMU-44" target="9BBqrbZMhpgvefR6SsMU-20" edge="1">
          <mxGeometry width="50" height="50" relative="1" as="geometry">
            <mxPoint x="327" y="150" as="sourcePoint" />
            <mxPoint x="309" y="85" as="targetPoint" />
          </mxGeometry>
        </mxCell>
        <mxCell id="9BBqrbZMhpgvefR6SsMU-47" value="+3" style="ellipse;whiteSpace=wrap;html=1;aspect=fixed;fontFamily=Courier New;fontSize=11;fillColor=#f8cecc;strokeColor=#b85450;" parent="1" vertex="1">
          <mxGeometry x="410" y="130" width="20" height="20" as="geometry" />
        </mxCell>
        <mxCell id="9BBqrbZMhpgvefR6SsMU-48" value="+6" style="ellipse;whiteSpace=wrap;html=1;aspect=fixed;fontFamily=Courier New;fontSize=11;fillColor=#f8cecc;strokeColor=#b85450;" parent="1" vertex="1">
          <mxGeometry x="450" y="130" width="20" height="20" as="geometry" />
        </mxCell>
        <mxCell id="9BBqrbZMhpgvefR6SsMU-49" value="" style="endArrow=none;html=1;rounded=0;fontFamily=Courier New;fontSize=11;" parent="1" source="9BBqrbZMhpgvefR6SsMU-47" target="9BBqrbZMhpgvefR6SsMU-21" edge="1">
          <mxGeometry width="50" height="50" relative="1" as="geometry">
            <mxPoint x="307" y="160" as="sourcePoint" />
            <mxPoint x="413" y="87" as="targetPoint" />
          </mxGeometry>
        </mxCell>
        <mxCell id="9BBqrbZMhpgvefR6SsMU-50" value="" style="endArrow=none;html=1;rounded=0;fontFamily=Courier New;fontSize=11;" parent="1" source="9BBqrbZMhpgvefR6SsMU-48" target="9BBqrbZMhpgvefR6SsMU-21" edge="1">
          <mxGeometry width="50" height="50" relative="1" as="geometry">
            <mxPoint x="447" y="150" as="sourcePoint" />
            <mxPoint x="429" y="85" as="targetPoint" />
          </mxGeometry>
        </mxCell>
        <mxCell id="9BBqrbZMhpgvefR6SsMU-51" value="+7" style="ellipse;whiteSpace=wrap;html=1;aspect=fixed;fontFamily=Courier New;fontSize=11;fillColor=#f8cecc;strokeColor=#b85450;" parent="1" vertex="1">
          <mxGeometry x="530" y="130" width="20" height="20" as="geometry" />
        </mxCell>
        <mxCell id="9BBqrbZMhpgvefR6SsMU-52" value="+1" style="ellipse;whiteSpace=wrap;html=1;aspect=fixed;fontFamily=Courier New;fontSize=11;fillColor=#f8cecc;strokeColor=#b85450;" parent="1" vertex="1">
          <mxGeometry x="570" y="130" width="20" height="20" as="geometry" />
        </mxCell>
        <mxCell id="9BBqrbZMhpgvefR6SsMU-53" value="" style="endArrow=none;html=1;rounded=0;fontFamily=Courier New;fontSize=11;" parent="1" source="9BBqrbZMhpgvefR6SsMU-51" target="9BBqrbZMhpgvefR6SsMU-23" edge="1">
          <mxGeometry width="50" height="50" relative="1" as="geometry">
            <mxPoint x="387" y="160" as="sourcePoint" />
            <mxPoint x="493" y="87" as="targetPoint" />
          </mxGeometry>
        </mxCell>
        <mxCell id="9BBqrbZMhpgvefR6SsMU-54" value="" style="endArrow=none;html=1;rounded=0;fontFamily=Courier New;fontSize=11;" parent="1" source="9BBqrbZMhpgvefR6SsMU-52" target="9BBqrbZMhpgvefR6SsMU-23" edge="1">
          <mxGeometry width="50" height="50" relative="1" as="geometry">
            <mxPoint x="527" y="150" as="sourcePoint" />
            <mxPoint x="509" y="85" as="targetPoint" />
          </mxGeometry>
        </mxCell>
        <mxCell id="9BBqrbZMhpgvefR6SsMU-55" value="+5" style="ellipse;whiteSpace=wrap;html=1;aspect=fixed;fontFamily=Courier New;fontSize=11;fillColor=#f8cecc;strokeColor=#b85450;" parent="1" vertex="1">
          <mxGeometry x="490" y="130" width="20" height="20" as="geometry" />
        </mxCell>
        <mxCell id="9BBqrbZMhpgvefR6SsMU-56" value="" style="endArrow=none;html=1;rounded=0;fontFamily=Courier New;fontSize=11;" parent="1" source="9BBqrbZMhpgvefR6SsMU-55" target="9BBqrbZMhpgvefR6SsMU-21" edge="1">
          <mxGeometry width="50" height="50" relative="1" as="geometry">
            <mxPoint x="467" y="150" as="sourcePoint" />
            <mxPoint x="449" y="85" as="targetPoint" />
          </mxGeometry>
        </mxCell>
        <mxCell id="9BBqrbZMhpgvefR6SsMU-57" value="+8" style="ellipse;whiteSpace=wrap;html=1;aspect=fixed;fontFamily=Courier New;fontSize=11;fillColor=#f8cecc;strokeColor=#b85450;" parent="1" vertex="1">
          <mxGeometry x="330" y="130" width="20" height="20" as="geometry" />
        </mxCell>
        <mxCell id="9BBqrbZMhpgvefR6SsMU-58" value="+4" style="ellipse;whiteSpace=wrap;html=1;aspect=fixed;fontFamily=Courier New;fontSize=11;fillColor=#f8cecc;strokeColor=#b85450;" parent="1" vertex="1">
          <mxGeometry x="370" y="130" width="20" height="20" as="geometry" />
        </mxCell>
        <mxCell id="9BBqrbZMhpgvefR6SsMU-59" value="" style="endArrow=none;html=1;rounded=0;fontFamily=Courier New;fontSize=11;" parent="1" source="9BBqrbZMhpgvefR6SsMU-57" target="9BBqrbZMhpgvefR6SsMU-18" edge="1">
          <mxGeometry width="50" height="50" relative="1" as="geometry">
            <mxPoint x="242" y="161" as="sourcePoint" />
            <mxPoint x="351" y="80" as="targetPoint" />
          </mxGeometry>
        </mxCell>
        <mxCell id="9BBqrbZMhpgvefR6SsMU-60" value="" style="endArrow=none;html=1;rounded=0;fontFamily=Courier New;fontSize=11;" parent="1" source="9BBqrbZMhpgvefR6SsMU-58" target="9BBqrbZMhpgvefR6SsMU-18" edge="1">
          <mxGeometry width="50" height="50" relative="1" as="geometry">
            <mxPoint x="382" y="151" as="sourcePoint" />
            <mxPoint x="357" y="81" as="targetPoint" />
          </mxGeometry>
        </mxCell>
        <mxCell id="Qq3qGLP8-f37mIoQ0mAc-1" value="+4" style="ellipse;whiteSpace=wrap;html=1;aspect=fixed;fontFamily=Courier New;fontSize=11;strokeColor=#FFFFFF;" vertex="1" parent="1">
          <mxGeometry x="10" y="171" width="20" height="20" as="geometry" />
        </mxCell>
        <mxCell id="Qq3qGLP8-f37mIoQ0mAc-2" value="" style="endArrow=none;html=1;rounded=0;fontFamily=Courier New;fontSize=11;" edge="1" parent="1" source="Qq3qGLP8-f37mIoQ0mAc-1" target="9BBqrbZMhpgvefR6SsMU-31">
          <mxGeometry width="50" height="50" relative="1" as="geometry">
            <mxPoint x="-13" y="201" as="sourcePoint" />
            <mxPoint x="36" y="150" as="targetPoint" />
          </mxGeometry>
        </mxCell>
        <mxCell id="Qq3qGLP8-f37mIoQ0mAc-3" value="+8" style="ellipse;whiteSpace=wrap;html=1;aspect=fixed;fontFamily=Courier New;fontSize=11;strokeColor=#FFFFFF;" vertex="1" parent="1">
          <mxGeometry x="50" y="171" width="20" height="20" as="geometry" />
        </mxCell>
        <mxCell id="Qq3qGLP8-f37mIoQ0mAc-4" value="" style="endArrow=none;html=1;rounded=0;fontFamily=Courier New;fontSize=11;" edge="1" parent="1" source="Qq3qGLP8-f37mIoQ0mAc-3">
          <mxGeometry width="50" height="50" relative="1" as="geometry">
            <mxPoint x="27" y="201" as="sourcePoint" />
            <mxPoint x="60" y="150" as="targetPoint" />
          </mxGeometry>
        </mxCell>
        <mxCell id="Qq3qGLP8-f37mIoQ0mAc-5" value="+9" style="ellipse;whiteSpace=wrap;html=1;aspect=fixed;fontFamily=Courier New;fontSize=11;strokeColor=#FFFFFF;" vertex="1" parent="1">
          <mxGeometry x="90" y="171" width="20" height="20" as="geometry" />
        </mxCell>
        <mxCell id="Qq3qGLP8-f37mIoQ0mAc-6" value="" style="endArrow=none;html=1;rounded=0;fontFamily=Courier New;fontSize=11;" edge="1" parent="1" source="Qq3qGLP8-f37mIoQ0mAc-5">
          <mxGeometry width="50" height="50" relative="1" as="geometry">
            <mxPoint x="67" y="201" as="sourcePoint" />
            <mxPoint x="100" y="150" as="targetPoint" />
          </mxGeometry>
        </mxCell>
        <mxCell id="Qq3qGLP8-f37mIoQ0mAc-9" value="+3" style="ellipse;whiteSpace=wrap;html=1;aspect=fixed;fontFamily=Courier New;fontSize=11;strokeColor=#FFFFFF;" vertex="1" parent="1">
          <mxGeometry x="130" y="171" width="20" height="20" as="geometry" />
        </mxCell>
        <mxCell id="Qq3qGLP8-f37mIoQ0mAc-10" value="" style="endArrow=none;html=1;rounded=0;fontFamily=Courier New;fontSize=11;" edge="1" parent="1" source="Qq3qGLP8-f37mIoQ0mAc-9">
          <mxGeometry width="50" height="50" relative="1" as="geometry">
            <mxPoint x="107" y="201" as="sourcePoint" />
            <mxPoint x="140" y="150" as="targetPoint" />
          </mxGeometry>
        </mxCell>
        <mxCell id="Qq3qGLP8-f37mIoQ0mAc-11" value="+2" style="ellipse;whiteSpace=wrap;html=1;aspect=fixed;fontFamily=Courier New;fontSize=11;strokeColor=#FFFFFF;" vertex="1" parent="1">
          <mxGeometry x="170" y="171" width="20" height="20" as="geometry" />
        </mxCell>
        <mxCell id="Qq3qGLP8-f37mIoQ0mAc-12" value="" style="endArrow=none;html=1;rounded=0;fontFamily=Courier New;fontSize=11;" edge="1" parent="1" source="Qq3qGLP8-f37mIoQ0mAc-11">
          <mxGeometry width="50" height="50" relative="1" as="geometry">
            <mxPoint x="147" y="201" as="sourcePoint" />
            <mxPoint x="180" y="150" as="targetPoint" />
          </mxGeometry>
        </mxCell>
        <mxCell id="Qq3qGLP8-f37mIoQ0mAc-13" value="-2" style="ellipse;whiteSpace=wrap;html=1;aspect=fixed;fontFamily=Courier New;fontSize=11;strokeColor=#FFFFFF;" vertex="1" parent="1">
          <mxGeometry x="210" y="171" width="20" height="20" as="geometry" />
        </mxCell>
        <mxCell id="Qq3qGLP8-f37mIoQ0mAc-14" value="" style="endArrow=none;html=1;rounded=0;fontFamily=Courier New;fontSize=11;" edge="1" parent="1" source="Qq3qGLP8-f37mIoQ0mAc-13">
          <mxGeometry width="50" height="50" relative="1" as="geometry">
            <mxPoint x="187" y="201" as="sourcePoint" />
            <mxPoint x="220" y="150" as="targetPoint" />
          </mxGeometry>
        </mxCell>
        <mxCell id="Qq3qGLP8-f37mIoQ0mAc-15" value="+9" style="ellipse;whiteSpace=wrap;html=1;aspect=fixed;fontFamily=Courier New;fontSize=11;strokeColor=#FFFFFF;" vertex="1" parent="1">
          <mxGeometry x="250" y="171" width="20" height="20" as="geometry" />
        </mxCell>
        <mxCell id="Qq3qGLP8-f37mIoQ0mAc-16" value="" style="endArrow=none;html=1;rounded=0;fontFamily=Courier New;fontSize=11;" edge="1" parent="1" source="Qq3qGLP8-f37mIoQ0mAc-15">
          <mxGeometry width="50" height="50" relative="1" as="geometry">
            <mxPoint x="227" y="201" as="sourcePoint" />
            <mxPoint x="260" y="150" as="targetPoint" />
          </mxGeometry>
        </mxCell>
        <mxCell id="Qq3qGLP8-f37mIoQ0mAc-17" value="-1" style="ellipse;whiteSpace=wrap;html=1;aspect=fixed;fontFamily=Courier New;fontSize=11;strokeColor=#FFFFFF;" vertex="1" parent="1">
          <mxGeometry x="290" y="171" width="20" height="20" as="geometry" />
        </mxCell>
        <mxCell id="Qq3qGLP8-f37mIoQ0mAc-18" value="" style="endArrow=none;html=1;rounded=0;fontFamily=Courier New;fontSize=11;" edge="1" parent="1" source="Qq3qGLP8-f37mIoQ0mAc-17">
          <mxGeometry width="50" height="50" relative="1" as="geometry">
            <mxPoint x="267" y="201" as="sourcePoint" />
            <mxPoint x="300" y="150" as="targetPoint" />
          </mxGeometry>
        </mxCell>
        <mxCell id="Qq3qGLP8-f37mIoQ0mAc-19" value="+8" style="ellipse;whiteSpace=wrap;html=1;aspect=fixed;fontFamily=Courier New;fontSize=11;strokeColor=#FFFFFF;" vertex="1" parent="1">
          <mxGeometry x="330" y="171" width="20" height="20" as="geometry" />
        </mxCell>
        <mxCell id="Qq3qGLP8-f37mIoQ0mAc-20" value="" style="endArrow=none;html=1;rounded=0;fontFamily=Courier New;fontSize=11;" edge="1" parent="1" source="Qq3qGLP8-f37mIoQ0mAc-19">
          <mxGeometry width="50" height="50" relative="1" as="geometry">
            <mxPoint x="307" y="201" as="sourcePoint" />
            <mxPoint x="340" y="150" as="targetPoint" />
          </mxGeometry>
        </mxCell>
        <mxCell id="Qq3qGLP8-f37mIoQ0mAc-21" value="+4" style="ellipse;whiteSpace=wrap;html=1;aspect=fixed;fontFamily=Courier New;fontSize=11;strokeColor=#FFFFFF;" vertex="1" parent="1">
          <mxGeometry x="370" y="171" width="20" height="20" as="geometry" />
        </mxCell>
        <mxCell id="Qq3qGLP8-f37mIoQ0mAc-22" value="" style="endArrow=none;html=1;rounded=0;fontFamily=Courier New;fontSize=11;" edge="1" parent="1" source="Qq3qGLP8-f37mIoQ0mAc-21">
          <mxGeometry width="50" height="50" relative="1" as="geometry">
            <mxPoint x="347" y="201" as="sourcePoint" />
            <mxPoint x="380" y="150" as="targetPoint" />
          </mxGeometry>
        </mxCell>
        <mxCell id="Qq3qGLP8-f37mIoQ0mAc-23" value="+3" style="ellipse;whiteSpace=wrap;html=1;aspect=fixed;fontFamily=Courier New;fontSize=11;strokeColor=#FFFFFF;" vertex="1" parent="1">
          <mxGeometry x="410" y="171" width="20" height="20" as="geometry" />
        </mxCell>
        <mxCell id="Qq3qGLP8-f37mIoQ0mAc-24" value="" style="endArrow=none;html=1;rounded=0;fontFamily=Courier New;fontSize=11;" edge="1" parent="1" source="Qq3qGLP8-f37mIoQ0mAc-23">
          <mxGeometry width="50" height="50" relative="1" as="geometry">
            <mxPoint x="387" y="201" as="sourcePoint" />
            <mxPoint x="420" y="150" as="targetPoint" />
          </mxGeometry>
        </mxCell>
        <mxCell id="Qq3qGLP8-f37mIoQ0mAc-25" value="+6" style="ellipse;whiteSpace=wrap;html=1;aspect=fixed;fontFamily=Courier New;fontSize=11;strokeColor=#FFFFFF;" vertex="1" parent="1">
          <mxGeometry x="450" y="171" width="20" height="20" as="geometry" />
        </mxCell>
        <mxCell id="Qq3qGLP8-f37mIoQ0mAc-26" value="" style="endArrow=none;html=1;rounded=0;fontFamily=Courier New;fontSize=11;" edge="1" parent="1" source="Qq3qGLP8-f37mIoQ0mAc-25">
          <mxGeometry width="50" height="50" relative="1" as="geometry">
            <mxPoint x="427" y="201" as="sourcePoint" />
            <mxPoint x="460" y="150" as="targetPoint" />
          </mxGeometry>
        </mxCell>
        <mxCell id="Qq3qGLP8-f37mIoQ0mAc-29" value="+5" style="ellipse;whiteSpace=wrap;html=1;aspect=fixed;fontFamily=Courier New;fontSize=11;strokeColor=#FFFFFF;" vertex="1" parent="1">
          <mxGeometry x="490" y="171" width="20" height="20" as="geometry" />
        </mxCell>
        <mxCell id="Qq3qGLP8-f37mIoQ0mAc-30" value="" style="endArrow=none;html=1;rounded=0;fontFamily=Courier New;fontSize=11;" edge="1" parent="1" source="Qq3qGLP8-f37mIoQ0mAc-29">
          <mxGeometry width="50" height="50" relative="1" as="geometry">
            <mxPoint x="467" y="201" as="sourcePoint" />
            <mxPoint x="500" y="150" as="targetPoint" />
          </mxGeometry>
        </mxCell>
        <mxCell id="Qq3qGLP8-f37mIoQ0mAc-31" value="+7" style="ellipse;whiteSpace=wrap;html=1;aspect=fixed;fontFamily=Courier New;fontSize=11;strokeColor=#FFFFFF;" vertex="1" parent="1">
          <mxGeometry x="530" y="171" width="20" height="20" as="geometry" />
        </mxCell>
        <mxCell id="Qq3qGLP8-f37mIoQ0mAc-32" value="" style="endArrow=none;html=1;rounded=0;fontFamily=Courier New;fontSize=11;" edge="1" parent="1" source="Qq3qGLP8-f37mIoQ0mAc-31">
          <mxGeometry width="50" height="50" relative="1" as="geometry">
            <mxPoint x="507" y="201" as="sourcePoint" />
            <mxPoint x="540" y="150" as="targetPoint" />
          </mxGeometry>
        </mxCell>
        <mxCell id="Qq3qGLP8-f37mIoQ0mAc-33" value="+1" style="ellipse;whiteSpace=wrap;html=1;aspect=fixed;fontFamily=Courier New;fontSize=11;strokeColor=#FFFFFF;" vertex="1" parent="1">
          <mxGeometry x="570" y="171" width="20" height="20" as="geometry" />
        </mxCell>
        <mxCell id="Qq3qGLP8-f37mIoQ0mAc-34" value="" style="endArrow=none;html=1;rounded=0;fontFamily=Courier New;fontSize=11;" edge="1" parent="1" source="Qq3qGLP8-f37mIoQ0mAc-33">
          <mxGeometry width="50" height="50" relative="1" as="geometry">
            <mxPoint x="547" y="201" as="sourcePoint" />
            <mxPoint x="580" y="150" as="targetPoint" />
          </mxGeometry>
        </mxCell>
      </root>
    </mxGraphModel>
  </diagram>
</mxfile>
